<svg width="12" height="13" viewBox="0 0 12 13" fill="none" xmlns="http://www.w3.org/2000/svg">
<path d="M6.20663 9.44066L8.57101 10.9384C8.87326 11.1297 9.24826 10.845 9.15863 10.4922L8.47576 7.80529C8.45647 7.73044 8.45869 7.65168 8.48217 7.57804C8.50566 7.50441 8.54945 7.43889 8.60851 7.38904L10.7288 5.62466C11.007 5.39291 10.8638 4.93054 10.5056 4.90729L7.73701 4.72729C7.66246 4.722 7.59096 4.69565 7.53081 4.6513C7.47066 4.60695 7.42435 4.54643 7.39726 4.47679L6.36451 1.87654C6.33638 1.80264 6.28647 1.73903 6.22137 1.69416C6.15627 1.64928 6.07907 1.62524 6.00001 1.62524C5.92094 1.62524 5.84374 1.64928 5.77864 1.69416C5.71354 1.73903 5.66363 1.80264 5.63551 1.87654L4.60276 4.47679C4.57572 4.5465 4.52943 4.6071 4.46928 4.65152C4.40913 4.69594 4.33759 4.72234 4.26301 4.72766L1.49438 4.90766C1.13663 4.93054 0.992631 5.39291 1.27126 5.62466L3.39151 7.38941C3.4505 7.43924 3.49424 7.50469 3.51772 7.57825C3.54121 7.65181 3.54347 7.7305 3.52426 7.80529L2.89126 10.2972C2.78363 10.7205 3.23401 11.0622 3.59626 10.8323L5.79376 9.44066C5.85552 9.4014 5.92719 9.38054 6.00038 9.38054C6.07357 9.38054 6.14524 9.4014 6.20701 9.44066H6.20663Z" fill="#FF8A00"/>
</svg>
